P1
343 43
0000000000000000000000000000000000000000000000000000000000000000000000000000000000000000000000000000000000000000000000000000000000000000000000000000000000000000000000000000000000000000000000000000000000000000000000000000000000000000000000000000000000000000000000000000000000000000000000000000000000000000000000000000000000000000000000000000000
0000000000000000000000000000000000000000000000000000000000000000000000000000000000000000000000000000000000000000000000000000000000000000000000000000000000000000000000000000000000000000000000000000000000000000000000000000000000000000000000000000000000000000000000000000000000000000000000000000000000000000000000000000000000000000000000000000000
0000000000000000000000000000000000000000000000000000000000000000000000000000000000000000000000000000000000000000000000000000000000000000000000000000000000000000000000000000000000000000000000000000000000000000000000000000000000000000000000000000000000000000000000000000000000000000000000000000000000000000000000000000000000000000000000000000000
0000000000000000000000000000000000000000000000000000000000000000000000000000000000000000000000000000000000000000000000000000000000000000000000000000000000000000000000000000000000000000000000000000000000000000000000000000000000000000000000000000000000000000000000000000000000000000000000000000000000000000000000000000000000000000000000000000000
0000111110000011111000001111100000000000000011111111110000000000000001111111111000001111100000000001111111111000000000011111000001111111111111110000011111111110000011111000001111100000111111111111111000000000011111000001111100000000000000011111000000000011111111110000011111111110000000000111110000000000111111111111111000001111100000111110000
0000111110000011111000001111100000000000000011111111110000000000000001111111111000001111100000000001111111111000000000011111000001111111111111110000011111111110000011111000001111100000111111111111111000000000011111000001111100000000000000011111000000000011111111110000011111111110000000000111110000000000111111111111111000001111100000111110000
0000111110000011111000001111100000000000000011111111110000000000000001111111111000001111100000000001111111111000000000011111000001111111111111110000011111111110000011111000001111100000111111111111111000000000011111000001111100000000000000011111000000000011111111110000011111111110000000000111110000000000111111111111111000001111100000111110000
0000111110000011111000001111100000000000000011111111110000000000000001111111111000001111100000000001111111111000000000011111000001111111111111110000011111111110000011111000001111100000111111111111111000000000011111000001111100000000000000011111000000000011111111110000011111111110000000000111110000000000111111111111111000001111100000111110000
0000111110000011111000001111100000000000000011111111110000000000000001111111111000001111100000000001111111111000000000011111000001111111111111110000011111111110000011111000001111100000111111111111111000000000011111000001111100000000000000011111000000000011111111110000011111111110000000000111110000000000111111111111111000001111100000111110000
0000111110000011111000001111100000000000000011111111110000000000000001111111111000001111100000000001111111111000000000011111000001111111111111110000011111111110000011111000001111100000111111111111111000000000011111000001111100000000000000011111000000000011111111110000011111111110000000000111110000000000111111111111111000001111100000111110000
0000111110000011111000001111100000000000000011111111110000000000000001111111111000001111100000000001111111111000000000011111000001111111111111110000011111111110000011111000001111100000111111111111111000000000011111000001111100000000000000011111000000000011111111110000011111111110000000000111110000000000111111111111111000001111100000111110000
0000111110000011111000001111100000000000000011111111110000000000000001111111111000001111100000000001111111111000000000011111000001111111111111110000011111111110000011111000001111100000111111111111111000000000011111000001111100000000000000011111000000000011111111110000011111111110000000000111110000000000111111111111111000001111100000111110000
0000111110000011111000001111100000000000000011111111110000000000000001111111111000001111100000000001111111111000000000011111000001111111111111110000011111111110000011111000001111100000111111111111111000000000011111000001111100000000000000011111000000000011111111110000011111111110000000000111110000000000111111111111111000001111100000111110000
0000111110000011111000001111100000000000000011111111110000000000000001111111111000001111100000000001111111111000000000011111000001111111111111110000011111111110000011111000001111100000111111111111111000000000011111000001111100000000000000011111000000000011111111110000011111111110000000000111110000000000111111111111111000001111100000111110000
0000111110000011111000001111100000000000000011111111110000000000000001111111111000001111100000000001111111111000000000011111000001111111111111110000011111111110000011111000001111100000111111111111111000000000011111000001111100000000000000011111000000000011111111110000011111111110000000000111110000000000111111111111111000001111100000111110000
0000111110000011111000001111100000000000000011111111110000000000000001111111111000001111100000000001111111111000000000011111000001111111111111110000011111111110000011111000001111100000111111111111111000000000011111000001111100000000000000011111000000000011111111110000011111111110000000000111110000000000111111111111111000001111100000111110000
0000111110000011111000001111100000000000000011111111110000000000000001111111111000001111100000000001111111111000000000011111000001111111111111110000011111111110000011111000001111100000111111111111111000000000011111000001111100000000000000011111000000000011111111110000011111111110000000000111110000000000111111111111111000001111100000111110000
0000111110000011111000001111100000000000000011111111110000000000000001111111111000001111100000000001111111111000000000011111000001111111111111110000011111111110000011111000001111100000111111111111111000000000011111000001111100000000000000011111000000000011111111110000011111111110000000000111110000000000111111111111111000001111100000111110000
0000111110000011111000001111100000000000000011111111110000000000000001111111111000001111100000000001111111111000000000011111000001111111111111110000011111111110000011111000001111100000111111111111111000000000011111000001111100000000000000011111000000000011111111110000011111111110000000000111110000000000111111111111111000001111100000111110000
0000111110000011111000001111100000000000000011111111110000000000000001111111111000001111100000000001111111111000000000011111000001111111111111110000011111111110000011111000001111100000111111111111111000000000011111000001111100000000000000011111000000000011111111110000011111111110000000000111110000000000111111111111111000001111100000111110000
0000111110000011111000001111100000000000000011111111110000000000000001111111111000001111100000000001111111111000000000011111000001111111111111110000011111111110000011111000001111100000111111111111111000000000011111000001111100000000000000011111000000000011111111110000011111111110000000000111110000000000111111111111111000001111100000111110000
0000111110000011111000001111100000000000000011111111110000000000000001111111111000001111100000000001111111111000000000011111000001111111111111110000011111111110000011111000001111100000111111111111111000000000011111000001111100000000000000011111000000000011111111110000011111111110000000000111110000000000111111111111111000001111100000111110000
0000111110000011111000001111100000000000000011111111110000000000000001111111111000001111100000000001111111111000000000011111000001111111111111110000011111111110000011111000001111100000111111111111111000000000011111000001111100000000000000011111000000000011111111110000011111111110000000000111110000000000111111111111111000001111100000111110000
0000111110000011111000001111100000000000000011111111110000000000000001111111111000001111100000000001111111111000000000011111000001111111111111110000011111111110000011111000001111100000111111111111111000000000011111000001111100000000000000011111000000000011111111110000011111111110000000000111110000000000111111111111111000001111100000111110000
0000111110000011111000001111100000000000000011111111110000000000000001111111111000001111100000000001111111111000000000011111000001111111111111110000011111111110000011111000001111100000111111111111111000000000011111000001111100000000000000011111000000000011111111110000011111111110000000000111110000000000111111111111111000001111100000111110000
0000111110000011111000001111100000000000000011111111110000000000000001111111111000001111100000000001111111111000000000011111000001111111111111110000011111111110000011111000001111100000111111111111111000000000011111000001111100000000000000011111000000000011111111110000011111111110000000000111110000000000111111111111111000001111100000111110000
0000111110000011111000001111100000000000000011111111110000000000000001111111111000001111100000000001111111111000000000011111000001111111111111110000011111111110000011111000001111100000111111111111111000000000011111000001111100000000000000011111000000000011111111110000011111111110000000000111110000000000111111111111111000001111100000111110000
0000111110000011111000001111100000000000000011111111110000000000000001111111111000001111100000000001111111111000000000011111000001111111111111110000011111111110000011111000001111100000111111111111111000000000011111000001111100000000000000011111000000000011111111110000011111111110000000000111110000000000111111111111111000001111100000111110000
0000111110000011111000001111100000000000000011111111110000000000000001111111111000001111100000000001111111111000000000011111000001111111111111110000011111111110000011111000001111100000111111111111111000000000011111000001111100000000000000011111000000000011111111110000011111111110000000000111110000000000111111111111111000001111100000111110000
0000111110000011111000001111100000000000000011111111110000000000000001111111111000001111100000000001111111111000000000011111000001111111111111110000011111111110000011111000001111100000111111111111111000000000011111000001111100000000000000011111000000000011111111110000011111111110000000000111110000000000111111111111111000001111100000111110000
0000111110000011111000001111100000000000000011111111110000000000000001111111111000001111100000000001111111111000000000011111000001111111111111110000011111111110000011111000001111100000111111111111111000000000011111000001111100000000000000011111000000000011111111110000011111111110000000000111110000000000111111111111111000001111100000111110000
0000111110000011111000001111100000000000000011111111110000000000000001111111111000001111100000000001111111111000000000011111000001111111111111110000011111111110000011111000001111100000111111111111111000000000011111000001111100000000000000011111000000000011111111110000011111111110000000000111110000000000111111111111111000001111100000111110000
0000111110000011111000001111100000000000000011111111110000000000000001111111111000001111100000000001111111111000000000011111000001111111111111110000011111111110000011111000001111100000111111111111111000000000011111000001111100000000000000011111000000000011111111110000011111111110000000000111110000000000111111111111111000001111100000111110000
0000111110000011111000001111100000000000000011111111110000000000000001111111111000001111100000000001111111111000000000011111000001111111111111110000011111111110000011111000001111100000111111111111111000000000011111000001111100000000000000011111000000000011111111110000011111111110000000000111110000000000111111111111111000001111100000111110000
0000111110000011111000001111100000000000000011111111110000000000000001111111111000001111100000000001111111111000000000011111000001111111111111110000011111111110000011111000001111100000111111111111111000000000011111000001111100000000000000011111000000000011111111110000011111111110000000000111110000000000111111111111111000001111100000111110000
0000111110000011111000001111100000000000000011111111110000000000000001111111111000001111100000000001111111111000000000011111000001111111111111110000011111111110000011111000001111100000111111111111111000000000011111000001111100000000000000011111000000000011111111110000011111111110000000000111110000000000111111111111111000001111100000111110000
0000111110000011111000001111100000000000000011111111110000000000000001111111111000001111100000000001111111111000000000011111000001111111111111110000011111111110000011111000001111100000111111111111111000000000011111000001111100000000000000011111000000000011111111110000011111111110000000000111110000000000111111111111111000001111100000111110000
0000111110000011111000001111100000000000000011111111110000000000000001111111111000001111100000000001111111111000000000011111000001111111111111110000011111111110000011111000001111100000111111111111111000000000011111000001111100000000000000011111000000000011111111110000011111111110000000000111110000000000111111111111111000001111100000111110000
0000111110000011111000001111100000000000000011111111110000000000000001111111111000001111100000000001111111111000000000011111000001111111111111110000011111111110000011111000001111100000111111111111111000000000011111000001111100000000000000011111000000000011111111110000011111111110000000000111110000000000111111111111111000001111100000111110000
0000000000000000000000000000000000000000000000000000000000000000000000000000000000000000000000000000000000000000000000000000000000000000000000000000000000000000000000000000000000000000000000000000000000000000000000000000000000000000000000000000000000000000000000000000000000000000000000000000000000000000000000000000000000000000000000000000000
0000000000000000000000000000000000000000000000000000000000000000000000000000000000000000000000000000000000000000000000000000000000000000000000000000000000000000000000000000000000000000000000000000000000000000000000000000000000000000000000000000000000000000000000000000000000000000000000000000000000000000000000000000000000000000000000000000000
0000000000000000000000000000000000000000000000000000000000000000000000000000000000000000000000000000000000000000000000000000000000000000000000000000000000000000000000000000000000000000000000000000000000000000000000000000000000000000000000000000000000000000000000000000000000000000000000000000000000000000000000000000000000000000000000000000000
0000000000000000000000000000000000000000000000000000000000000000000000000000000000000000000000000000000000000000000000000000000000000000000000000000000000000000000000000000000000000000000000000000000000000000000000000000000000000000000000000000000000000000000000000000000000000000000000000000000000000000000000000000000000000000000000000000000
