P1
221 70
00000000000000000000000000000000000000000000000000000000000000000000000000000000000000000000000000000000000000000000000000000000000000000000000000000000000000000000000000000000000000000000000000000000000000000000000000000
00000000000000000000000000000000000000000000000000000000000000000000000000000000000000000000000000000000000000000000000000000000000000000000000000000000000000000000000000000000000000000000000000000000000000000000000000000
00000000000000000000000000000000000000000000000000000000000000000000000000000000000000000000000000000000000000000000000000000000000000000000000000000000000000000000000000000000000000000000000000000000000000000000000000000
00000000000000000000000000000000000000000000000000000000000000000000000000000000000000000000000000000000000000000000000000000000000000000000000000000000000000000000000000000000000000000000000000000000000000000000000000000
00000000000000000000000000000000000000000000000000000000000000000000000000000000000000000000000000000000000000000000000000000000000000000000000000000000000000000000000000000000000000000000000000000000000000000000000000000
00000000000000000000000000000000000000000000000000000000000000000000000000000000000000000000000000000000000000000000000000000000000000000000000000000000000000000000000000000000000000000000000000000000000000000000000000000
00000000000000000000000000000000000000000000000000000000000000000000000000000000000000000000000000000000000000000000000000000000000000000000000000000000000000000000000000000000000000000000000000000000000000000000000000000
00000000000000000000000000000000000000000000000000000000000000000000000000000000000000000000000000000000000000000000000000000000000000000000000000000000000000000000000000000000000000000000000000000000000000000000000000000
00000000000000000000000000000000000000000000000000000000000000000000000000000000000000000000000000000000000000000000000000000000000000000000000000000000000000000000000000000000000000000000000000000000000000000000000000000
00000000000000000000000000000000000000000000000000000000000000000000000000000000000000000000000000000000000000000000000000000000000000000000000000000000000000000000000000000000000000000000000000000000000000000000000000000
00000000001110001110001110000000001111110000000001111110001110000001111110000001110001111111110001111110001110001110001111111110000001110001110000000001110000001111110001111110000001110000001111111110001110001110000000000
00000000001110001110001110000000001111110000000001111110001110000001111110000001110001111111110001111110001110001110001111111110000001110001110000000001110000001111110001111110000001110000001111111110001110001110000000000
00000000001110001110001110000000001111110000000001111110001110000001111110000001110001111111110001111110001110001110001111111110000001110001110000000001110000001111110001111110000001110000001111111110001110001110000000000
00000000001110001110001110000000001111110000000001111110001110000001111110000001110001111111110001111110001110001110001111111110000001110001110000000001110000001111110001111110000001110000001111111110001110001110000000000
00000000001110001110001110000000001111110000000001111110001110000001111110000001110001111111110001111110001110001110001111111110000001110001110000000001110000001111110001111110000001110000001111111110001110001110000000000
00000000001110001110001110000000001111110000000001111110001110000001111110000001110001111111110001111110001110001110001111111110000001110001110000000001110000001111110001111110000001110000001111111110001110001110000000000
00000000001110001110001110000000001111110000000001111110001110000001111110000001110001111111110001111110001110001110001111111110000001110001110000000001110000001111110001111110000001110000001111111110001110001110000000000
00000000001110001110001110000000001111110000000001111110001110000001111110000001110001111111110001111110001110001110001111111110000001110001110000000001110000001111110001111110000001110000001111111110001110001110000000000
00000000001110001110001110000000001111110000000001111110001110000001111110000001110001111111110001111110001110001110001111111110000001110001110000000001110000001111110001111110000001110000001111111110001110001110000000000
00000000001110001110001110000000001111110000000001111110001110000001111110000001110001111111110001111110001110001110001111111110000001110001110000000001110000001111110001111110000001110000001111111110001110001110000000000
00000000001110001110001110000000001111110000000001111110001110000001111110000001110001111111110001111110001110001110001111111110000001110001110000000001110000001111110001111110000001110000001111111110001110001110000000000
00000000001110001110001110000000001111110000000001111110001110000001111110000001110001111111110001111110001110001110001111111110000001110001110000000001110000001111110001111110000001110000001111111110001110001110000000000
00000000001110001110001110000000001111110000000001111110001110000001111110000001110001111111110001111110001110001110001111111110000001110001110000000001110000001111110001111110000001110000001111111110001110001110000000000
00000000001110001110001110000000001111110000000001111110001110000001111110000001110001111111110001111110001110001110001111111110000001110001110000000001110000001111110001111110000001110000001111111110001110001110000000000
00000000001110001110001110000000001111110000000001111110001110000001111110000001110001111111110001111110001110001110001111111110000001110001110000000001110000001111110001111110000001110000001111111110001110001110000000000
00000000001110001110001110000000001111110000000001111110001110000001111110000001110001111111110001111110001110001110001111111110000001110001110000000001110000001111110001111110000001110000001111111110001110001110000000000
00000000001110001110001110000000001111110000000001111110001110000001111110000001110001111111110001111110001110001110001111111110000001110001110000000001110000001111110001111110000001110000001111111110001110001110000000000
00000000001110001110001110000000001111110000000001111110001110000001111110000001110001111111110001111110001110001110001111111110000001110001110000000001110000001111110001111110000001110000001111111110001110001110000000000
00000000001110001110001110000000001111110000000001111110001110000001111110000001110001111111110001111110001110001110001111111110000001110001110000000001110000001111110001111110000001110000001111111110001110001110000000000
00000000001110001110001110000000001111110000000001111110001110000001111110000001110001111111110001111110001110001110001111111110000001110001110000000001110000001111110001111110000001110000001111111110001110001110000000000
00000000001110001110001110000000001111110000000001111110001110000001111110000001110001111111110001111110001110001110001111111110000001110001110000000001110000001111110001111110000001110000001111111110001110001110000000000
00000000001110001110001110000000001111110000000001111110001110000001111110000001110001111111110001111110001110001110001111111110000001110001110000000001110000001111110001111110000001110000001111111110001110001110000000000
00000000001110001110001110000000001111110000000001111110001110000001111110000001110001111111110001111110001110001110001111111110000001110001110000000001110000001111110001111110000001110000001111111110001110001110000000000
00000000001110001110001110000000001111110000000001111110001110000001111110000001110001111111110001111110001110001110001111111110000001110001110000000001110000001111110001111110000001110000001111111110001110001110000000000
00000000001110001110001110000000001111110000000001111110001110000001111110000001110001111111110001111110001110001110001111111110000001110001110000000001110000001111110001111110000001110000001111111110001110001110000000000
00000000001110001110001110000000001111110000000001111110001110000001111110000001110001111111110001111110001110001110001111111110000001110001110000000001110000001111110001111110000001110000001111111110001110001110000000000
00000000001110001110001110000000001111110000000001111110001110000001111110000001110001111111110001111110001110001110001111111110000001110001110000000001110000001111110001111110000001110000001111111110001110001110000000000
00000000001110001110001110000000001111110000000001111110001110000001111110000001110001111111110001111110001110001110001111111110000001110001110000000001110000001111110001111110000001110000001111111110001110001110000000000
00000000001110001110001110000000001111110000000001111110001110000001111110000001110001111111110001111110001110001110001111111110000001110001110000000001110000001111110001111110000001110000001111111110001110001110000000000
00000000001110001110001110000000001111110000000001111110001110000001111110000001110001111111110001111110001110001110001111111110000001110001110000000001110000001111110001111110000001110000001111111110001110001110000000000
00000000001110001110001110000000001111110000000001111110001110000001111110000001110001111111110001111110001110001110001111111110000001110001110000000001110000001111110001111110000001110000001111111110001110001110000000000
00000000001110001110001110000000001111110000000001111110001110000001111110000001110001111111110001111110001110001110001111111110000001110001110000000001110000001111110001111110000001110000001111111110001110001110000000000
00000000001110001110001110000000001111110000000001111110001110000001111110000001110001111111110001111110001110001110001111111110000001110001110000000001110000001111110001111110000001110000001111111110001110001110000000000
00000000001110001110001110000000001111110000000001111110001110000001111110000001110001111111110001111110001110001110001111111110000001110001110000000001110000001111110001111110000001110000001111111110001110001110000000000
00000000001110001110001110000000001111110000000001111110001110000001111110000001110001111111110001111110001110001110001111111110000001110001110000000001110000001111110001111110000001110000001111111110001110001110000000000
00000000001110001110001110000000001111110000000001111110001110000001111110000001110001111111110001111110001110001110001111111110000001110001110000000001110000001111110001111110000001110000001111111110001110001110000000000
00000000001110001110001110000000001111110000000001111110001110000001111110000001110001111111110001111110001110001110001111111110000001110001110000000001110000001111110001111110000001110000001111111110001110001110000000000
00000000001110001110001110000000001111110000000001111110001110000001111110000001110001111111110001111110001110001110001111111110000001110001110000000001110000001111110001111110000001110000001111111110001110001110000000000
00000000001110001110001110000000001111110000000001111110001110000001111110000001110001111111110001111110001110001110001111111110000001110001110000000001110000001111110001111110000001110000001111111110001110001110000000000
00000000001110001110001110000000001111110000000001111110001110000001111110000001110001111111110001111110001110001110001111111110000001110001110000000001110000001111110001111110000001110000001111111110001110001110000000000
00000000001110001110001110000000001111110000000001111110001110000001111110000001110001111111110001111110001110001110001111111110000001110001110000000001110000001111110001111110000001110000001111111110001110001110000000000
00000000001110001110001110000000001111110000000001111110001110000001111110000001110001111111110001111110001110001110001111111110000001110001110000000001110000001111110001111110000001110000001111111110001110001110000000000
00000000001110001110001110000000001111110000000001111110001110000001111110000001110001111111110001111110001110001110001111111110000001110001110000000001110000001111110001111110000001110000001111111110001110001110000000000
00000000001110001110001110000000001111110000000001111110001110000001111110000001110001111111110001111110001110001110001111111110000001110001110000000001110000001111110001111110000001110000001111111110001110001110000000000
00000000001110001110001110000000001111110000000001111110001110000001111110000001110001111111110001111110001110001110001111111110000001110001110000000001110000001111110001111110000001110000001111111110001110001110000000000
00000000001110001110001110000000001111110000000001111110001110000001111110000001110001111111110001111110001110001110001111111110000001110001110000000001110000001111110001111110000001110000001111111110001110001110000000000
00000000001110001110001110000000001111110000000001111110001110000001111110000001110001111111110001111110001110001110001111111110000001110001110000000001110000001111110001111110000001110000001111111110001110001110000000000
00000000001110001110001110000000001111110000000001111110001110000001111110000001110001111111110001111110001110001110001111111110000001110001110000000001110000001111110001111110000001110000001111111110001110001110000000000
00000000001110001110001110000000001111110000000001111110001110000001111110000001110001111111110001111110001110001110001111111110000001110001110000000001110000001111110001111110000001110000001111111110001110001110000000000
00000000001110001110001110000000001111110000000001111110001110000001111110000001110001111111110001111110001110001110001111111110000001110001110000000001110000001111110001111110000001110000001111111110001110001110000000000
00000000000000000000000000000000000000000000000000000000000000000000000000000000000000000000000000000000000000000000000000000000000000000000000000000000000000000000000000000000000000000000000000000000000000000000000000000
00000000000000000000000000000000000000000000000000000000000000000000000000000000000000000000000000000000000000000000000000000000000000000000000000000000000000000000000000000000000000000000000000000000000000000000000000000
00000000000000000000000000000000000000000000000000000000000000000000000000000000000000000000000000000000000000000000000000000000000000000000000000000000000000000000000000000000000000000000000000000000000000000000000000000
00000000000000000000000000000000000000000000000000000000000000000000000000000000000000000000000000000000000000000000000000000000000000000000000000000000000000000000000000000000000000000000000000000000000000000000000000000
00000000000000000000000000000000000000000000000000000000000000000000000000000000000000000000000000000000000000000000000000000000000000000000000000000000000000000000000000000000000000000000000000000000000000000000000000000
00000000000000000000000000000000000000000000000000000000000000000000000000000000000000000000000000000000000000000000000000000000000000000000000000000000000000000000000000000000000000000000000000000000000000000000000000000
00000000000000000000000000000000000000000000000000000000000000000000000000000000000000000000000000000000000000000000000000000000000000000000000000000000000000000000000000000000000000000000000000000000000000000000000000000
00000000000000000000000000000000000000000000000000000000000000000000000000000000000000000000000000000000000000000000000000000000000000000000000000000000000000000000000000000000000000000000000000000000000000000000000000000
00000000000000000000000000000000000000000000000000000000000000000000000000000000000000000000000000000000000000000000000000000000000000000000000000000000000000000000000000000000000000000000000000000000000000000000000000000
00000000000000000000000000000000000000000000000000000000000000000000000000000000000000000000000000000000000000000000000000000000000000000000000000000000000000000000000000000000000000000000000000000000000000000000000000000
