P1
276 58
000000000000000000000000000000000000000000000000000000000000000000000000000000000000000000000000000000000000000000000000000000000000000000000000000000000000000000000000000000000000000000000000000000000000000000000000000000000000000000000000000000000000000000000000000000000000
000000000000000000000000000000000000000000000000000000000000000000000000000000000000000000000000000000000000000000000000000000000000000000000000000000000000000000000000000000000000000000000000000000000000000000000000000000000000000000000000000000000000000000000000000000000000
000000000000000000000000000000000000000000000000000000000000000000000000000000000000000000000000000000000000000000000000000000000000000000000000000000000000000000000000000000000000000000000000000000000000000000000000000000000000000000000000000000000000000000000000000000000000
000000000000000000000000000000000000000000000000000000000000000000000000000000000000000000000000000000000000000000000000000000000000000000000000000000000000000000000000000000000000000000000000000000000000000000000000000000000000000000000000000000000000000000000000000000000000
000011110000111100001111000000000000111111110000000000001111111100001111000000001111111100000000111100001111111111110000111111110000111100001111000011111111111100000000111100001111000000000000111100000000111111110000111111110000000011110000000011111111111100001111000011110000
000011110000111100001111000000000000111111110000000000001111111100001111000000001111111100000000111100001111111111110000111111110000111100001111000011111111111100000000111100001111000000000000111100000000111111110000111111110000000011110000000011111111111100001111000011110000
000011110000111100001111000000000000111111110000000000001111111100001111000000001111111100000000111100001111111111110000111111110000111100001111000011111111111100000000111100001111000000000000111100000000111111110000111111110000000011110000000011111111111100001111000011110000
000011110000111100001111000000000000111111110000000000001111111100001111000000001111111100000000111100001111111111110000111111110000111100001111000011111111111100000000111100001111000000000000111100000000111111110000111111110000000011110000000011111111111100001111000011110000
000011110000111100001111000000000000111111110000000000001111111100001111000000001111111100000000111100001111111111110000111111110000111100001111000011111111111100000000111100001111000000000000111100000000111111110000111111110000000011110000000011111111111100001111000011110000
000011110000111100001111000000000000111111110000000000001111111100001111000000001111111100000000111100001111111111110000111111110000111100001111000011111111111100000000111100001111000000000000111100000000111111110000111111110000000011110000000011111111111100001111000011110000
000011110000111100001111000000000000111111110000000000001111111100001111000000001111111100000000111100001111111111110000111111110000111100001111000011111111111100000000111100001111000000000000111100000000111111110000111111110000000011110000000011111111111100001111000011110000
000011110000111100001111000000000000111111110000000000001111111100001111000000001111111100000000111100001111111111110000111111110000111100001111000011111111111100000000111100001111000000000000111100000000111111110000111111110000000011110000000011111111111100001111000011110000
000011110000111100001111000000000000111111110000000000001111111100001111000000001111111100000000111100001111111111110000111111110000111100001111000011111111111100000000111100001111000000000000111100000000111111110000111111110000000011110000000011111111111100001111000011110000
000011110000111100001111000000000000111111110000000000001111111100001111000000001111111100000000111100001111111111110000111111110000111100001111000011111111111100000000111100001111000000000000111100000000111111110000111111110000000011110000000011111111111100001111000011110000
000011110000111100001111000000000000111111110000000000001111111100001111000000001111111100000000111100001111111111110000111111110000111100001111000011111111111100000000111100001111000000000000111100000000111111110000111111110000000011110000000011111111111100001111000011110000
000011110000111100001111000000000000111111110000000000001111111100001111000000001111111100000000111100001111111111110000111111110000111100001111000011111111111100000000111100001111000000000000111100000000111111110000111111110000000011110000000011111111111100001111000011110000
000011110000111100001111000000000000111111110000000000001111111100001111000000001111111100000000111100001111111111110000111111110000111100001111000011111111111100000000111100001111000000000000111100000000111111110000111111110000000011110000000011111111111100001111000011110000
000011110000111100001111000000000000111111110000000000001111111100001111000000001111111100000000111100001111111111110000111111110000111100001111000011111111111100000000111100001111000000000000111100000000111111110000111111110000000011110000000011111111111100001111000011110000
000011110000111100001111000000000000111111110000000000001111111100001111000000001111111100000000111100001111111111110000111111110000111100001111000011111111111100000000111100001111000000000000111100000000111111110000111111110000000011110000000011111111111100001111000011110000
000011110000111100001111000000000000111111110000000000001111111100001111000000001111111100000000111100001111111111110000111111110000111100001111000011111111111100000000111100001111000000000000111100000000111111110000111111110000000011110000000011111111111100001111000011110000
000011110000111100001111000000000000111111110000000000001111111100001111000000001111111100000000111100001111111111110000111111110000111100001111000011111111111100000000111100001111000000000000111100000000111111110000111111110000000011110000000011111111111100001111000011110000
000011110000111100001111000000000000111111110000000000001111111100001111000000001111111100000000111100001111111111110000111111110000111100001111000011111111111100000000111100001111000000000000111100000000111111110000111111110000000011110000000011111111111100001111000011110000
000011110000111100001111000000000000111111110000000000001111111100001111000000001111111100000000111100001111111111110000111111110000111100001111000011111111111100000000111100001111000000000000111100000000111111110000111111110000000011110000000011111111111100001111000011110000
000011110000111100001111000000000000111111110000000000001111111100001111000000001111111100000000111100001111111111110000111111110000111100001111000011111111111100000000111100001111000000000000111100000000111111110000111111110000000011110000000011111111111100001111000011110000
000011110000111100001111000000000000111111110000000000001111111100001111000000001111111100000000111100001111111111110000111111110000111100001111000011111111111100000000111100001111000000000000111100000000111111110000111111110000000011110000000011111111111100001111000011110000
000011110000111100001111000000000000111111110000000000001111111100001111000000001111111100000000111100001111111111110000111111110000111100001111000011111111111100000000111100001111000000000000111100000000111111110000111111110000000011110000000011111111111100001111000011110000
000011110000111100001111000000000000111111110000000000001111111100001111000000001111111100000000111100001111111111110000111111110000111100001111000011111111111100000000111100001111000000000000111100000000111111110000111111110000000011110000000011111111111100001111000011110000
000011110000111100001111000000000000111111110000000000001111111100001111000000001111111100000000111100001111111111110000111111110000111100001111000011111111111100000000111100001111000000000000111100000000111111110000111111110000000011110000000011111111111100001111000011110000
000011110000111100001111000000000000111111110000000000001111111100001111000000001111111100000000111100001111111111110000111111110000111100001111000011111111111100000000111100001111000000000000111100000000111111110000111111110000000011110000000011111111111100001111000011110000
000011110000111100001111000000000000111111110000000000001111111100001111000000001111111100000000111100001111111111110000111111110000111100001111000011111111111100000000111100001111000000000000111100000000111111110000111111110000000011110000000011111111111100001111000011110000
000011110000111100001111000000000000111111110000000000001111111100001111000000001111111100000000111100001111111111110000111111110000111100001111000011111111111100000000111100001111000000000000111100000000111111110000111111110000000011110000000011111111111100001111000011110000
000011110000111100001111000000000000111111110000000000001111111100001111000000001111111100000000111100001111111111110000111111110000111100001111000011111111111100000000111100001111000000000000111100000000111111110000111111110000000011110000000011111111111100001111000011110000
000011110000111100001111000000000000111111110000000000001111111100001111000000001111111100000000111100001111111111110000111111110000111100001111000011111111111100000000111100001111000000000000111100000000111111110000111111110000000011110000000011111111111100001111000011110000
000011110000111100001111000000000000111111110000000000001111111100001111000000001111111100000000111100001111111111110000111111110000111100001111000011111111111100000000111100001111000000000000111100000000111111110000111111110000000011110000000011111111111100001111000011110000
000011110000111100001111000000000000111111110000000000001111111100001111000000001111111100000000111100001111111111110000111111110000111100001111000011111111111100000000111100001111000000000000111100000000111111110000111111110000000011110000000011111111111100001111000011110000
000011110000111100001111000000000000111111110000000000001111111100001111000000001111111100000000111100001111111111110000111111110000111100001111000011111111111100000000111100001111000000000000111100000000111111110000111111110000000011110000000011111111111100001111000011110000
000011110000111100001111000000000000111111110000000000001111111100001111000000001111111100000000111100001111111111110000111111110000111100001111000011111111111100000000111100001111000000000000111100000000111111110000111111110000000011110000000011111111111100001111000011110000
000011110000111100001111000000000000111111110000000000001111111100001111000000001111111100000000111100001111111111110000111111110000111100001111000011111111111100000000111100001111000000000000111100000000111111110000111111110000000011110000000011111111111100001111000011110000
000011110000111100001111000000000000111111110000000000001111111100001111000000001111111100000000111100001111111111110000111111110000111100001111000011111111111100000000111100001111000000000000111100000000111111110000111111110000000011110000000011111111111100001111000011110000
000011110000111100001111000000000000111111110000000000001111111100001111000000001111111100000000111100001111111111110000111111110000111100001111000011111111111100000000111100001111000000000000111100000000111111110000111111110000000011110000000011111111111100001111000011110000
000011110000111100001111000000000000111111110000000000001111111100001111000000001111111100000000111100001111111111110000111111110000111100001111000011111111111100000000111100001111000000000000111100000000111111110000111111110000000011110000000011111111111100001111000011110000
000011110000111100001111000000000000111111110000000000001111111100001111000000001111111100000000111100001111111111110000111111110000111100001111000011111111111100000000111100001111000000000000111100000000111111110000111111110000000011110000000011111111111100001111000011110000
000011110000111100001111000000000000111111110000000000001111111100001111000000001111111100000000111100001111111111110000111111110000111100001111000011111111111100000000111100001111000000000000111100000000111111110000111111110000000011110000000011111111111100001111000011110000
000011110000111100001111000000000000111111110000000000001111111100001111000000001111111100000000111100001111111111110000111111110000111100001111000011111111111100000000111100001111000000000000111100000000111111110000111111110000000011110000000011111111111100001111000011110000
000011110000111100001111000000000000111111110000000000001111111100001111000000001111111100000000111100001111111111110000111111110000111100001111000011111111111100000000111100001111000000000000111100000000111111110000111111110000000011110000000011111111111100001111000011110000
000011110000111100001111000000000000111111110000000000001111111100001111000000001111111100000000111100001111111111110000111111110000111100001111000011111111111100000000111100001111000000000000111100000000111111110000111111110000000011110000000011111111111100001111000011110000
000011110000111100001111000000000000111111110000000000001111111100001111000000001111111100000000111100001111111111110000111111110000111100001111000011111111111100000000111100001111000000000000111100000000111111110000111111110000000011110000000011111111111100001111000011110000
000011110000111100001111000000000000111111110000000000001111111100001111000000001111111100000000111100001111111111110000111111110000111100001111000011111111111100000000111100001111000000000000111100000000111111110000111111110000000011110000000011111111111100001111000011110000
000011110000111100001111000000000000111111110000000000001111111100001111000000001111111100000000111100001111111111110000111111110000111100001111000011111111111100000000111100001111000000000000111100000000111111110000111111110000000011110000000011111111111100001111000011110000
000011110000111100001111000000000000111111110000000000001111111100001111000000001111111100000000111100001111111111110000111111110000111100001111000011111111111100000000111100001111000000000000111100000000111111110000111111110000000011110000000011111111111100001111000011110000
000011110000111100001111000000000000111111110000000000001111111100001111000000001111111100000000111100001111111111110000111111110000111100001111000011111111111100000000111100001111000000000000111100000000111111110000111111110000000011110000000011111111111100001111000011110000
000011110000111100001111000000000000111111110000000000001111111100001111000000001111111100000000111100001111111111110000111111110000111100001111000011111111111100000000111100001111000000000000111100000000111111110000111111110000000011110000000011111111111100001111000011110000
000011110000111100001111000000000000111111110000000000001111111100001111000000001111111100000000111100001111111111110000111111110000111100001111000011111111111100000000111100001111000000000000111100000000111111110000111111110000000011110000000011111111111100001111000011110000
000011110000111100001111000000000000111111110000000000001111111100001111000000001111111100000000111100001111111111110000111111110000111100001111000011111111111100000000111100001111000000000000111100000000111111110000111111110000000011110000000011111111111100001111000011110000
000000000000000000000000000000000000000000000000000000000000000000000000000000000000000000000000000000000000000000000000000000000000000000000000000000000000000000000000000000000000000000000000000000000000000000000000000000000000000000000000000000000000000000000000000000000000
000000000000000000000000000000000000000000000000000000000000000000000000000000000000000000000000000000000000000000000000000000000000000000000000000000000000000000000000000000000000000000000000000000000000000000000000000000000000000000000000000000000000000000000000000000000000
000000000000000000000000000000000000000000000000000000000000000000000000000000000000000000000000000000000000000000000000000000000000000000000000000000000000000000000000000000000000000000000000000000000000000000000000000000000000000000000000000000000000000000000000000000000000
000000000000000000000000000000000000000000000000000000000000000000000000000000000000000000000000000000000000000000000000000000000000000000000000000000000000000000000000000000000000000000000000000000000000000000000000000000000000000000000000000000000000000000000000000000000000
