P1
201 50
111000111000111000000000111111000000000111111000111000000111111000000111000111111111000111111000111000111000111111111000000111000111000000000111000000111111000111111000000111000000111111111000111000111
111000111000111000000000111111000000000111111000111000000111111000000111000111111111000111111000111000111000111111111000000111000111000000000111000000111111000111111000000111000000111111111000111000111
111000111000111000000000111111000000000111111000111000000111111000000111000111111111000111111000111000111000111111111000000111000111000000000111000000111111000111111000000111000000111111111000111000111
111000111000111000000000111111000000000111111000111000000111111000000111000111111111000111111000111000111000111111111000000111000111000000000111000000111111000111111000000111000000111111111000111000111
111000111000111000000000111111000000000111111000111000000111111000000111000111111111000111111000111000111000111111111000000111000111000000000111000000111111000111111000000111000000111111111000111000111
111000111000111000000000111111000000000111111000111000000111111000000111000111111111000111111000111000111000111111111000000111000111000000000111000000111111000111111000000111000000111111111000111000111
111000111000111000000000111111000000000111111000111000000111111000000111000111111111000111111000111000111000111111111000000111000111000000000111000000111111000111111000000111000000111111111000111000111
111000111000111000000000111111000000000111111000111000000111111000000111000111111111000111111000111000111000111111111000000111000111000000000111000000111111000111111000000111000000111111111000111000111
111000111000111000000000111111000000000111111000111000000111111000000111000111111111000111111000111000111000111111111000000111000111000000000111000000111111000111111000000111000000111111111000111000111
111000111000111000000000111111000000000111111000111000000111111000000111000111111111000111111000111000111000111111111000000111000111000000000111000000111111000111111000000111000000111111111000111000111
111000111000111000000000111111000000000111111000111000000111111000000111000111111111000111111000111000111000111111111000000111000111000000000111000000111111000111111000000111000000111111111000111000111
111000111000111000000000111111000000000111111000111000000111111000000111000111111111000111111000111000111000111111111000000111000111000000000111000000111111000111111000000111000000111111111000111000111
111000111000111000000000111111000000000111111000111000000111111000000111000111111111000111111000111000111000111111111000000111000111000000000111000000111111000111111000000111000000111111111000111000111
111000111000111000000000111111000000000111111000111000000111111000000111000111111111000111111000111000111000111111111000000111000111000000000111000000111111000111111000000111000000111111111000111000111
111000111000111000000000111111000000000111111000111000000111111000000111000111111111000111111000111000111000111111111000000111000111000000000111000000111111000111111000000111000000111111111000111000111
111000111000111000000000111111000000000111111000111000000111111000000111000111111111000111111000111000111000111111111000000111000111000000000111000000111111000111111000000111000000111111111000111000111
111000111000111000000000111111000000000111111000111000000111111000000111000111111111000111111000111000111000111111111000000111000111000000000111000000111111000111111000000111000000111111111000111000111
111000111000111000000000111111000000000111111000111000000111111000000111000111111111000111111000111000111000111111111000000111000111000000000111000000111111000111111000000111000000111111111000111000111
111000111000111000000000111111000000000111111000111000000111111000000111000111111111000111111000111000111000111111111000000111000111000000000111000000111111000111111000000111000000111111111000111000111
111000111000111000000000111111000000000111111000111000000111111000000111000111111111000111111000111000111000111111111000000111000111000000000111000000111111000111111000000111000000111111111000111000111
111000111000111000000000111111000000000111111000111000000111111000000111000111111111000111111000111000111000111111111000000111000111000000000111000000111111000111111000000111000000111111111000111000111
111000111000111000000000111111000000000111111000111000000111111000000111000111111111000111111000111000111000111111111000000111000111000000000111000000111111000111111000000111000000111111111000111000111
111000111000111000000000111111000000000111111000111000000111111000000111000111111111000111111000111000111000111111111000000111000111000000000111000000111111000111111000000111000000111111111000111000111
111000111000111000000000111111000000000111111000111000000111111000000111000111111111000111111000111000111000111111111000000111000111000000000111000000111111000111111000000111000000111111111000111000111
111000111000111000000000111111000000000111111000111000000111111000000111000111111111000111111000111000111000111111111000000111000111000000000111000000111111000111111000000111000000111111111000111000111
111000111000111000000000111111000000000111111000111000000111111000000111000111111111000111111000111000111000111111111000000111000111000000000111000000111111000111111000000111000000111111111000111000111
111000111000111000000000111111000000000111111000111000000111111000000111000111111111000111111000111000111000111111111000000111000111000000000111000000111111000111111000000111000000111111111000111000111
111000111000111000000000111111000000000111111000111000000111111000000111000111111111000111111000111000111000111111111000000111000111000000000111000000111111000111111000000111000000111111111000111000111
111000111000111000000000111111000000000111111000111000000111111000000111000111111111000111111000111000111000111111111000000111000111000000000111000000111111000111111000000111000000111111111000111000111
111000111000111000000000111111000000000111111000111000000111111000000111000111111111000111111000111000111000111111111000000111000111000000000111000000111111000111111000000111000000111111111000111000111
111000111000111000000000111111000000000111111000111000000111111000000111000111111111000111111000111000111000111111111000000111000111000000000111000000111111000111111000000111000000111111111000111000111
111000111000111000000000111111000000000111111000111000000111111000000111000111111111000111111000111000111000111111111000000111000111000000000111000000111111000111111000000111000000111111111000111000111
111000111000111000000000111111000000000111111000111000000111111000000111000111111111000111111000111000111000111111111000000111000111000000000111000000111111000111111000000111000000111111111000111000111
111000111000111000000000111111000000000111111000111000000111111000000111000111111111000111111000111000111000111111111000000111000111000000000111000000111111000111111000000111000000111111111000111000111
111000111000111000000000111111000000000111111000111000000111111000000111000111111111000111111000111000111000111111111000000111000111000000000111000000111111000111111000000111000000111111111000111000111
111000111000111000000000111111000000000111111000111000000111111000000111000111111111000111111000111000111000111111111000000111000111000000000111000000111111000111111000000111000000111111111000111000111
111000111000111000000000111111000000000111111000111000000111111000000111000111111111000111111000111000111000111111111000000111000111000000000111000000111111000111111000000111000000111111111000111000111
111000111000111000000000111111000000000111111000111000000111111000000111000111111111000111111000111000111000111111111000000111000111000000000111000000111111000111111000000111000000111111111000111000111
111000111000111000000000111111000000000111111000111000000111111000000111000111111111000111111000111000111000111111111000000111000111000000000111000000111111000111111000000111000000111111111000111000111
111000111000111000000000111111000000000111111000111000000111111000000111000111111111000111111000111000111000111111111000000111000111000000000111000000111111000111111000000111000000111111111000111000111
111000111000111000000000111111000000000111111000111000000111111000000111000111111111000111111000111000111000111111111000000111000111000000000111000000111111000111111000000111000000111111111000111000111
111000111000111000000000111111000000000111111000111000000111111000000111000111111111000111111000111000111000111111111000000111000111000000000111000000111111000111111000000111000000111111111000111000111
111000111000111000000000111111000000000111111000111000000111111000000111000111111111000111111000111000111000111111111000000111000111000000000111000000111111000111111000000111000000111111111000111000111
111000111000111000000000111111000000000111111000111000000111111000000111000111111111000111111000111000111000111111111000000111000111000000000111000000111111000111111000000111000000111111111000111000111
111000111000111000000000111111000000000111111000111000000111111000000111000111111111000111111000111000111000111111111000000111000111000000000111000000111111000111111000000111000000111111111000111000111
111000111000111000000000111111000000000111111000111000000111111000000111000111111111000111111000111000111000111111111000000111000111000000000111000000111111000111111000000111000000111111111000111000111
111000111000111000000000111111000000000111111000111000000111111000000111000111111111000111111000111000111000111111111000000111000111000000000111000000111111000111111000000111000000111111111000111000111
111000111000111000000000111111000000000111111000111000000111111000000111000111111111000111111000111000111000111111111000000111000111000000000111000000111111000111111000000111000000111111111000111000111
111000111000111000000000111111000000000111111000111000000111111000000111000111111111000111111000111000111000111111111000000111000111000000000111000000111111000111111000000111000000111111111000111000111
111000111000111000000000111111000000000111111000111000000111111000000111000111111111000111111000111000111000111111111000000111000111000000000111000000111111000111111000000111000000111111111000111000111
