P1
268 25
1111000011110000111100000000000011111111000000000000111111110000111100000000111111110000000011110000111111111111000011111111000011110000111100001111111111110000000011110000111100000000000011110000000011111111000011111111000000001111000000001111111111110000111100001111
1111000011110000111100000000000011111111000000000000111111110000111100000000111111110000000011110000111111111111000011111111000011110000111100001111111111110000000011110000111100000000000011110000000011111111000011111111000000001111000000001111111111110000111100001111
1111000011110000111100000000000011111111000000000000111111110000111100000000111111110000000011110000111111111111000011111111000011110000111100001111111111110000000011110000111100000000000011110000000011111111000011111111000000001111000000001111111111110000111100001111
1111000011110000111100000000000011111111000000000000111111110000111100000000111111110000000011110000111111111111000011111111000011110000111100001111111111110000000011110000111100000000000011110000000011111111000011111111000000001111000000001111111111110000111100001111
1111000011110000111100000000000011111111000000000000111111110000111100000000111111110000000011110000111111111111000011111111000011110000111100001111111111110000000011110000111100000000000011110000000011111111000011111111000000001111000000001111111111110000111100001111
1111000011110000111100000000000011111111000000000000111111110000111100000000111111110000000011110000111111111111000011111111000011110000111100001111111111110000000011110000111100000000000011110000000011111111000011111111000000001111000000001111111111110000111100001111
1111000011110000111100000000000011111111000000000000111111110000111100000000111111110000000011110000111111111111000011111111000011110000111100001111111111110000000011110000111100000000000011110000000011111111000011111111000000001111000000001111111111110000111100001111
1111000011110000111100000000000011111111000000000000111111110000111100000000111111110000000011110000111111111111000011111111000011110000111100001111111111110000000011110000111100000000000011110000000011111111000011111111000000001111000000001111111111110000111100001111
1111000011110000111100000000000011111111000000000000111111110000111100000000111111110000000011110000111111111111000011111111000011110000111100001111111111110000000011110000111100000000000011110000000011111111000011111111000000001111000000001111111111110000111100001111
1111000011110000111100000000000011111111000000000000111111110000111100000000111111110000000011110000111111111111000011111111000011110000111100001111111111110000000011110000111100000000000011110000000011111111000011111111000000001111000000001111111111110000111100001111
1111000011110000111100000000000011111111000000000000111111110000111100000000111111110000000011110000111111111111000011111111000011110000111100001111111111110000000011110000111100000000000011110000000011111111000011111111000000001111000000001111111111110000111100001111
1111000011110000111100000000000011111111000000000000111111110000111100000000111111110000000011110000111111111111000011111111000011110000111100001111111111110000000011110000111100000000000011110000000011111111000011111111000000001111000000001111111111110000111100001111
1111000011110000111100000000000011111111000000000000111111110000111100000000111111110000000011110000111111111111000011111111000011110000111100001111111111110000000011110000111100000000000011110000000011111111000011111111000000001111000000001111111111110000111100001111
1111000011110000111100000000000011111111000000000000111111110000111100000000111111110000000011110000111111111111000011111111000011110000111100001111111111110000000011110000111100000000000011110000000011111111000011111111000000001111000000001111111111110000111100001111
1111000011110000111100000000000011111111000000000000111111110000111100000000111111110000000011110000111111111111000011111111000011110000111100001111111111110000000011110000111100000000000011110000000011111111000011111111000000001111000000001111111111110000111100001111
1111000011110000111100000000000011111111000000000000111111110000111100000000111111110000000011110000111111111111000011111111000011110000111100001111111111110000000011110000111100000000000011110000000011111111000011111111000000001111000000001111111111110000111100001111
1111000011110000111100000000000011111111000000000000111111110000111100000000111111110000000011110000111111111111000011111111000011110000111100001111111111110000000011110000111100000000000011110000000011111111000011111111000000001111000000001111111111110000111100001111
1111000011110000111100000000000011111111000000000000111111110000111100000000111111110000000011110000111111111111000011111111000011110000111100001111111111110000000011110000111100000000000011110000000011111111000011111111000000001111000000001111111111110000111100001111
1111000011110000111100000000000011111111000000000000111111110000111100000000111111110000000011110000111111111111000011111111000011110000111100001111111111110000000011110000111100000000000011110000000011111111000011111111000000001111000000001111111111110000111100001111
1111000011110000111100000000000011111111000000000000111111110000111100000000111111110000000011110000111111111111000011111111000011110000111100001111111111110000000011110000111100000000000011110000000011111111000011111111000000001111000000001111111111110000111100001111
1111000011110000111100000000000011111111000000000000111111110000111100000000111111110000000011110000111111111111000011111111000011110000111100001111111111110000000011110000111100000000000011110000000011111111000011111111000000001111000000001111111111110000111100001111
1111000011110000111100000000000011111111000000000000111111110000111100000000111111110000000011110000111111111111000011111111000011110000111100001111111111110000000011110000111100000000000011110000000011111111000011111111000000001111000000001111111111110000111100001111
1111000011110000111100000000000011111111000000000000111111110000111100000000111111110000000011110000111111111111000011111111000011110000111100001111111111110000000011110000111100000000000011110000000011111111000011111111000000001111000000001111111111110000111100001111
1111000011110000111100000000000011111111000000000000111111110000111100000000111111110000000011110000111111111111000011111111000011110000111100001111111111110000000011110000111100000000000011110000000011111111000011111111000000001111000000001111111111110000111100001111
1111000011110000111100000000000011111111000000000000111111110000111100000000111111110000000011110000111111111111000011111111000011110000111100001111111111110000000011110000111100000000000011110000000011111111000011111111000000001111000000001111111111110000111100001111
