P1
278 35
00000000000000000000000000000000000000000000000000000000000000000000000000000000000000000000000000000000000000000000000000000000000000000000000000000000000000000000000000000000000000000000000000000000000000000000000000000000000000000000000000000000000000000000000000000000000000
00000000000000000000000000000000000000000000000000000000000000000000000000000000000000000000000000000000000000000000000000000000000000000000000000000000000000000000000000000000000000000000000000000000000000000000000000000000000000000000000000000000000000000000000000000000000000
00000000000000000000000000000000000000000000000000000000000000000000000000000000000000000000000000000000000000000000000000000000000000000000000000000000000000000000000000000000000000000000000000000000000000000000000000000000000000000000000000000000000000000000000000000000000000
00000000000000000000000000000000000000000000000000000000000000000000000000000000000000000000000000000000000000000000000000000000000000000000000000000000000000000000000000000000000000000000000000000000000000000000000000000000000000000000000000000000000000000000000000000000000000
00000000000000000000000000000000000000000000000000000000000000000000000000000000000000000000000000000000000000000000000000000000000000000000000000000000000000000000000000000000000000000000000000000000000000000000000000000000000000000000000000000000000000000000000000000000000000
00000111100001111000011110000000000001111111100000000000011111111000011110000000011111111000000001111000011111111111100001111111100001111000011110000111111111111000000001111000011110000000000001111000000001111111100001111111100000000111100000000111111111111000011110000111100000
00000111100001111000011110000000000001111111100000000000011111111000011110000000011111111000000001111000011111111111100001111111100001111000011110000111111111111000000001111000011110000000000001111000000001111111100001111111100000000111100000000111111111111000011110000111100000
00000111100001111000011110000000000001111111100000000000011111111000011110000000011111111000000001111000011111111111100001111111100001111000011110000111111111111000000001111000011110000000000001111000000001111111100001111111100000000111100000000111111111111000011110000111100000
00000111100001111000011110000000000001111111100000000000011111111000011110000000011111111000000001111000011111111111100001111111100001111000011110000111111111111000000001111000011110000000000001111000000001111111100001111111100000000111100000000111111111111000011110000111100000
00000111100001111000011110000000000001111111100000000000011111111000011110000000011111111000000001111000011111111111100001111111100001111000011110000111111111111000000001111000011110000000000001111000000001111111100001111111100000000111100000000111111111111000011110000111100000
00000111100001111000011110000000000001111111100000000000011111111000011110000000011111111000000001111000011111111111100001111111100001111000011110000111111111111000000001111000011110000000000001111000000001111111100001111111100000000111100000000111111111111000011110000111100000
00000111100001111000011110000000000001111111100000000000011111111000011110000000011111111000000001111000011111111111100001111111100001111000011110000111111111111000000001111000011110000000000001111000000001111111100001111111100000000111100000000111111111111000011110000111100000
00000111100001111000011110000000000001111111100000000000011111111000011110000000011111111000000001111000011111111111100001111111100001111000011110000111111111111000000001111000011110000000000001111000000001111111100001111111100000000111100000000111111111111000011110000111100000
00000111100001111000011110000000000001111111100000000000011111111000011110000000011111111000000001111000011111111111100001111111100001111000011110000111111111111000000001111000011110000000000001111000000001111111100001111111100000000111100000000111111111111000011110000111100000
00000111100001111000011110000000000001111111100000000000011111111000011110000000011111111000000001111000011111111111100001111111100001111000011110000111111111111000000001111000011110000000000001111000000001111111100001111111100000000111100000000111111111111000011110000111100000
00000111100001111000011110000000000001111111100000000000011111111000011110000000011111111000000001111000011111111111100001111111100001111000011110000111111111111000000001111000011110000000000001111000000001111111100001111111100000000111100000000111111111111000011110000111100000
00000111100001111000011110000000000001111111100000000000011111111000011110000000011111111000000001111000011111111111100001111111100001111000011110000111111111111000000001111000011110000000000001111000000001111111100001111111100000000111100000000111111111111000011110000111100000
00000111100001111000011110000000000001111111100000000000011111111000011110000000011111111000000001111000011111111111100001111111100001111000011110000111111111111000000001111000011110000000000001111000000001111111100001111111100000000111100000000111111111111000011110000111100000
00000111100001111000011110000000000001111111100000000000011111111000011110000000011111111000000001111000011111111111100001111111100001111000011110000111111111111000000001111000011110000000000001111000000001111111100001111111100000000111100000000111111111111000011110000111100000
00000111100001111000011110000000000001111111100000000000011111111000011110000000011111111000000001111000011111111111100001111111100001111000011110000111111111111000000001111000011110000000000001111000000001111111100001111111100000000111100000000111111111111000011110000111100000
00000111100001111000011110000000000001111111100000000000011111111000011110000000011111111000000001111000011111111111100001111111100001111000011110000111111111111000000001111000011110000000000001111000000001111111100001111111100000000111100000000111111111111000011110000111100000
00000111100001111000011110000000000001111111100000000000011111111000011110000000011111111000000001111000011111111111100001111111100001111000011110000111111111111000000001111000011110000000000001111000000001111111100001111111100000000111100000000111111111111000011110000111100000
00000111100001111000011110000000000001111111100000000000011111111000011110000000011111111000000001111000011111111111100001111111100001111000011110000111111111111000000001111000011110000000000001111000000001111111100001111111100000000111100000000111111111111000011110000111100000
00000111100001111000011110000000000001111111100000000000011111111000011110000000011111111000000001111000011111111111100001111111100001111000011110000111111111111000000001111000011110000000000001111000000001111111100001111111100000000111100000000111111111111000011110000111100000
00000111100001111000011110000000000001111111100000000000011111111000011110000000011111111000000001111000011111111111100001111111100001111000011110000111111111111000000001111000011110000000000001111000000001111111100001111111100000000111100000000111111111111000011110000111100000
00000111100001111000011110000000000001111111100000000000011111111000011110000000011111111000000001111000011111111111100001111111100001111000011110000111111111111000000001111000011110000000000001111000000001111111100001111111100000000111100000000111111111111000011110000111100000
00000111100001111000011110000000000001111111100000000000011111111000011110000000011111111000000001111000011111111111100001111111100001111000011110000111111111111000000001111000011110000000000001111000000001111111100001111111100000000111100000000111111111111000011110000111100000
00000111100001111000011110000000000001111111100000000000011111111000011110000000011111111000000001111000011111111111100001111111100001111000011110000111111111111000000001111000011110000000000001111000000001111111100001111111100000000111100000000111111111111000011110000111100000
00000111100001111000011110000000000001111111100000000000011111111000011110000000011111111000000001111000011111111111100001111111100001111000011110000111111111111000000001111000011110000000000001111000000001111111100001111111100000000111100000000111111111111000011110000111100000
00000111100001111000011110000000000001111111100000000000011111111000011110000000011111111000000001111000011111111111100001111111100001111000011110000111111111111000000001111000011110000000000001111000000001111111100001111111100000000111100000000111111111111000011110000111100000
00000000000000000000000000000000000000000000000000000000000000000000000000000000000000000000000000000000000000000000000000000000000000000000000000000000000000000000000000000000000000000000000000000000000000000000000000000000000000000000000000000000000000000000000000000000000000
00000000000000000000000000000000000000000000000000000000000000000000000000000000000000000000000000000000000000000000000000000000000000000000000000000000000000000000000000000000000000000000000000000000000000000000000000000000000000000000000000000000000000000000000000000000000000
00000000000000000000000000000000000000000000000000000000000000000000000000000000000000000000000000000000000000000000000000000000000000000000000000000000000000000000000000000000000000000000000000000000000000000000000000000000000000000000000000000000000000000000000000000000000000
00000000000000000000000000000000000000000000000000000000000000000000000000000000000000000000000000000000000000000000000000000000000000000000000000000000000000000000000000000000000000000000000000000000000000000000000000000000000000000000000000000000000000000000000000000000000000
00000000000000000000000000000000000000000000000000000000000000000000000000000000000000000000000000000000000000000000000000000000000000000000000000000000000000000000000000000000000000000000000000000000000000000000000000000000000000000000000000000000000000000000000000000000000000
